REM DIRINDEX 1\2,1\3,1\4
REM DIRNAME cjc141,folder01,folder02,folder03
TITLE ""
FILE "Track78.mp3" MP3
  TRACK 01 AUDIO
    TITLE "4:cjc141_464"
    INDEX 01 00:00:00
  TRACK 02 AUDIO
    TITLE "2:cjc141_465"
    INDEX 01 00:02:08
  TRACK 03 AUDIO
    TITLE "0:"
    INDEX 01 00:18:05
  TRACK 04 AUDIO
    TITLE "3:cjc141_466"
    INDEX 01 00:19:67
  TRACK 05 AUDIO
    TITLE "0:"
    INDEX 01 00:34:36
